# xmcd CD database file
#
# Track frame offsets:
#	150
#	12983
#	26194
#	38205
#	50216
#	63933
#	83263
#	98364
#	110112
#	121099
#	136271
#	150141
#	163710
#	181243
#	191952
#	205819
#	219263
#	232806
#	244408
#	255067
#	268523
#	280495
#	291671
#	306793
#	317687
#
# Disc length: 4429 seconds
#
# Revision: 0
# Processed by: cddbd v1.5.2PL0 Copyright (c) Steve Scherf et al.
# Submitted via: CDex 1.70beta2
#
DISCID=58114b19
DTITLE=Etta James - Heart and Soul A Retrospective Disc 2
DYEAR=2011
DGENRE=Blues
TTITLE0=Stop The Wedding
TTITLE1=Pushover
TTITLE2=Would It Make Any Difference To You
TTITLE3=Pay Back
TTITLE4=Two Sides (To Every Story)
TTITLE5=Baby, What You Want Me To Do (Live) 
TTITLE6=Lovin' You More Every Day
TTITLE7=I Wish Someone Would Care
TTITLE8=Breaking Point
TTITLE9=Only Time Will Tell
TTITLE10=It's Here For You
TTITLE11=Do I Make Myself Clear ?
TTITLE12=Lover Man (Oh Where Can You Be ?)
TTITLE13=In The Basement, Part One
TTITLE14=I Prefer You
TTITLE15=It Must Be Your Love
TTITLE16=842-3089 (Call My Name)
TTITLE17=I'd Rather Go Blind
TTITLE18=Tell Mama
TTITLE19=Do Right Woman, Do Right Man
TTITLE20=The Same Rope
TTITLE21=Security
TTITLE22=Almost Persuaded
TTITLE23=You Got It
TTITLE24=The Soul Of A Man
EXTD=YEAR: 2011
EXTT0=
EXTT1=
EXTT2=
EXTT3=
EXTT4=
EXTT5=
EXTT6=
EXTT7=
EXTT8=
EXTT9=
EXTT10=
EXTT11=
EXTT12=
EXTT13=
EXTT14=
EXTT15=
EXTT16=
EXTT17=
EXTT18=
EXTT19=
EXTT20=
EXTT21=
EXTT22=
EXTT23=
EXTT24=
PLAYORDER=
